<?xml version="1.0" encoding="UTF-8" standalone="no"?><svg xmlns="http://www.w3.org/2000/svg" xmlns:xlink="http://www.w3.org/1999/xlink" contentScriptType="application/ecmascript" contentStyleType="text/css" height="628px" preserveAspectRatio="none" style="width:1962px;height:628px;" version="1.1" viewBox="0 0 1962 628" width="1962px" zoomAndPan="magnify"><defs><filter height="300%" id="fw19xfgpmr3vb" width="300%" x="-1" y="-1"><feGaussianBlur result="blurOut" stdDeviation="2.0"/><feColorMatrix in="blurOut" result="blurOut2" type="matrix" values="0 0 0 0 0 0 0 0 0 0 0 0 0 0 0 0 0 0 .4 0"/><feOffset dx="4.0" dy="4.0" in="blurOut2" result="blurOut3"/><feBlend in="SourceGraphic" in2="blurOut3" mode="normal"/></filter></defs><g><!--MD5=[915f6a2b4bff9d90dc7327d570275f1b]
cluster Configuration--><rect fill="#FFFFFF" filter="url(#fw19xfgpmr3vb)" height="306.5" style="stroke: #000000; stroke-width: 1.5;" width="374" x="1577" y="24.5"/><text fill="#000000" font-family="sans-serif" font-size="14" font-weight="bold" lengthAdjust="spacingAndGlyphs" textLength="107" x="1710.5" y="39.4951">Configuration</text><!--MD5=[71140b3ba4daac67570aedd882b28cc4]
cluster Model Adapter--><rect fill="#FFFFFF" filter="url(#fw19xfgpmr3vb)" height="279" style="stroke: #000000; stroke-width: 1.5;" width="742" x="811" y="197"/><text fill="#000000" font-family="sans-serif" font-size="14" font-weight="bold" lengthAdjust="spacingAndGlyphs" textLength="115" x="1124.5" y="211.9951">Model Adapter</text><!--MD5=[6b7c581b1232d93c1464960450df7415]
cluster Action Adapter--><rect fill="#FFFFFF" filter="url(#fw19xfgpmr3vb)" height="420" style="stroke: #000000; stroke-width: 1.5;" width="553" x="22" y="197"/><text fill="#000000" font-family="sans-serif" font-size="14" font-weight="bold" lengthAdjust="spacingAndGlyphs" textLength="118" x="239.5" y="211.9951">Action Adapter</text><!--MD5=[5304a453dab29df61cea58dd58b6468a]
cluster Observation Handler--><rect fill="#FFFFFF" filter="url(#fw19xfgpmr3vb)" height="112" style="stroke: #000000; stroke-width: 1.5;" width="188" x="599" y="364"/><text fill="#000000" font-family="sans-serif" font-size="14" font-weight="bold" lengthAdjust="spacingAndGlyphs" textLength="162" x="612" y="378.9951">Observation Handler</text><!--MD5=[408106abd972f6b7ac4daed5b73ee2b8]
class RfmConfigYaml--><rect fill="#FEFECE" filter="url(#fw19xfgpmr3vb)" height="105.1563" id="RfmConfigYaml" style="stroke: #A80036; stroke-width: 1.5;" width="190" x="1669" y="210"/><ellipse cx="1714.25" cy="228.9688" fill="#ADD1B2" rx="11" ry="11" style="stroke: #A80036; stroke-width: 1.0;"/><path d="M1717.2188,234.6094 Q1716.6406,234.9063 1716,235.0469 Q1715.3594,235.2031 1714.6563,235.2031 Q1712.1563,235.2031 1710.8281,233.5625 Q1709.5156,231.9063 1709.5156,228.7813 Q1709.5156,225.6563 1710.8281,224 Q1712.1563,222.3438 1714.6563,222.3438 Q1715.3594,222.3438 1716,222.5 Q1716.6563,222.6563 1717.2188,222.9531 L1717.2188,225.6719 Q1716.5938,225.0938 1716,224.8281 Q1715.4063,224.5469 1714.7813,224.5469 Q1713.4375,224.5469 1712.75,225.625 Q1712.0625,226.6875 1712.0625,228.7813 Q1712.0625,230.875 1712.75,231.9531 Q1713.4375,233.0156 1714.7813,233.0156 Q1715.4063,233.0156 1716,232.75 Q1716.5938,232.4688 1717.2188,231.8906 L1717.2188,234.6094 Z "/><text fill="#000000" font-family="sans-serif" font-size="12" font-style="italic" lengthAdjust="spacingAndGlyphs" textLength="63" x="1748.75" y="226.1387">«schema»</text><text fill="#000000" font-family="sans-serif" font-size="12" lengthAdjust="spacingAndGlyphs" textLength="91" x="1734.75" y="240.1074">RfmConfigYaml</text><line style="stroke: #A80036; stroke-width: 1.5;" x1="1670" x2="1858" y1="247.9375" y2="247.9375"/><text fill="#000000" font-family="sans-serif" font-size="11" lengthAdjust="spacingAndGlyphs" textLength="144" x="1675" y="262.1479">model : ModelConfigYaml</text><text fill="#000000" font-family="sans-serif" font-size="11" lengthAdjust="spacingAndGlyphs" textLength="144" x="1675" y="274.9526">action : ActionConfigYaml</text><text fill="#000000" font-family="sans-serif" font-size="11" lengthAdjust="spacingAndGlyphs" textLength="170" x="1675" y="287.7573">robots : list[RobotConfigYaml]</text><text fill="#000000" font-family="sans-serif" font-size="11" lengthAdjust="spacingAndGlyphs" textLength="178" x="1675" y="300.562">images : list[ImageConfigYaml]</text><line style="stroke: #A80036; stroke-width: 1.5;" x1="1670" x2="1858" y1="307.1563" y2="307.1563"/><!--MD5=[4990b14a8fa3f4d07e2bcfb020482356]
class AdapterFactory--><rect fill="#FEFECE" filter="url(#fw19xfgpmr3vb)" height="60.8047" id="AdapterFactory" style="stroke: #A80036; stroke-width: 1.5;" width="342" x="1593" y="59.5"/><ellipse cx="1711.75" cy="75.5" fill="#ADD1B2" rx="11" ry="11" style="stroke: #A80036; stroke-width: 1.0;"/><path d="M1714.7188,81.1406 Q1714.1406,81.4375 1713.5,81.5781 Q1712.8594,81.7344 1712.1563,81.7344 Q1709.6563,81.7344 1708.3281,80.0938 Q1707.0156,78.4375 1707.0156,75.3125 Q1707.0156,72.1875 1708.3281,70.5313 Q1709.6563,68.875 1712.1563,68.875 Q1712.8594,68.875 1713.5,69.0313 Q1714.1563,69.1875 1714.7188,69.4844 L1714.7188,72.2031 Q1714.0938,71.625 1713.5,71.3594 Q1712.9063,71.0781 1712.2813,71.0781 Q1710.9375,71.0781 1710.25,72.1563 Q1709.5625,73.2188 1709.5625,75.3125 Q1709.5625,77.4063 1710.25,78.4844 Q1710.9375,79.5469 1712.2813,79.5469 Q1712.9063,79.5469 1713.5,79.2813 Q1714.0938,79 1714.7188,78.4219 L1714.7188,81.1406 Z "/><text fill="#000000" font-family="sans-serif" font-size="12" lengthAdjust="spacingAndGlyphs" textLength="96" x="1732.25" y="79.6543">AdapterFactory</text><line style="stroke: #A80036; stroke-width: 1.5;" x1="1594" x2="1934" y1="91.5" y2="91.5"/><line style="stroke: #A80036; stroke-width: 1.5;" x1="1594" x2="1934" y1="99.5" y2="99.5"/><ellipse cx="1604" cy="110.5" fill="#84BE84" rx="3" ry="3" style="stroke: #038048; stroke-width: 1.0;"/><text fill="#000000" font-family="sans-serif" font-size="11" lengthAdjust="spacingAndGlyphs" textLength="316" x="1613" y="113.7104">create_adapters(config_path) -&gt; (ModelPort, ActionPort)</text><!--MD5=[9a90e13e163bb35b3cbc76a56ff113b0]
class ModelPort--><rect fill="#FEFECE" filter="url(#fw19xfgpmr3vb)" height="60.8047" id="ModelPort" style="stroke: #A80036; stroke-width: 1.5;" width="157" x="1001.5" y="232"/><ellipse cx="1044.4" cy="248" fill="#B4A7E5" rx="11" ry="11" style="stroke: #A80036; stroke-width: 1.0;"/><path d="M1040.3219,243.7656 L1040.3219,241.6094 L1047.7125,241.6094 L1047.7125,243.7656 L1045.2438,243.7656 L1045.2438,251.8438 L1047.7125,251.8438 L1047.7125,254 L1040.3219,254 L1040.3219,251.8438 L1042.7906,251.8438 L1042.7906,243.7656 L1040.3219,243.7656 Z "/><text fill="#000000" font-family="sans-serif" font-size="12" font-style="italic" lengthAdjust="spacingAndGlyphs" textLength="63" x="1064.6" y="252.1543">ModelPort</text><line style="stroke: #A80036; stroke-width: 1.5;" x1="1002.5" x2="1157.5" y1="264" y2="264"/><line style="stroke: #A80036; stroke-width: 1.5;" x1="1002.5" x2="1157.5" y1="272" y2="272"/><ellipse cx="1012.5" cy="283" fill="#84BE84" rx="3" ry="3" style="stroke: #038048; stroke-width: 1.0;"/><text fill="#000000" font-family="sans-serif" font-size="11" lengthAdjust="spacingAndGlyphs" textLength="131" x="1021.5" y="286.2104">get_action(prompt: str)</text><!--MD5=[4987e6044cf567c168652e0c037330fd]
class ModelClient--><rect fill="#FEFECE" filter="url(#fw19xfgpmr3vb)" height="60.8047" id="ModelClient" style="stroke: #A80036; stroke-width: 1.5;" width="208" x="827" y="399"/><ellipse cx="890.75" cy="415" fill="#B4A7E5" rx="11" ry="11" style="stroke: #A80036; stroke-width: 1.0;"/><path d="M886.6719,410.7656 L886.6719,408.6094 L894.0625,408.6094 L894.0625,410.7656 L891.5938,410.7656 L891.5938,418.8438 L894.0625,418.8438 L894.0625,421 L886.6719,421 L886.6719,418.8438 L889.1406,418.8438 L889.1406,410.7656 L886.6719,410.7656 Z "/><text fill="#000000" font-family="sans-serif" font-size="12" font-style="italic" lengthAdjust="spacingAndGlyphs" textLength="72" x="911.25" y="419.1543">ModelClient</text><line style="stroke: #A80036; stroke-width: 1.5;" x1="828" x2="1034" y1="431" y2="431"/><line style="stroke: #A80036; stroke-width: 1.5;" x1="828" x2="1034" y1="439" y2="439"/><ellipse cx="838" cy="450" fill="#84BE84" rx="3" ry="3" style="stroke: #038048; stroke-width: 1.0;"/><text fill="#000000" font-family="sans-serif" font-size="11" lengthAdjust="spacingAndGlyphs" textLength="182" x="847" y="453.2104">get_action(observation, prompt)</text><!--MD5=[aedaadfc51aa8ec9da5869293085a726]
class ModelInputMapper--><rect fill="#FEFECE" filter="url(#fw19xfgpmr3vb)" height="60.8047" id="ModelInputMapper" style="stroke: #A80036; stroke-width: 1.5;" width="269" x="1070.5" y="399"/><ellipse cx="1142.75" cy="415" fill="#B4A7E5" rx="11" ry="11" style="stroke: #A80036; stroke-width: 1.0;"/><path d="M1138.6719,410.7656 L1138.6719,408.6094 L1146.0625,408.6094 L1146.0625,410.7656 L1143.5938,410.7656 L1143.5938,418.8438 L1146.0625,418.8438 L1146.0625,421 L1138.6719,421 L1138.6719,418.8438 L1141.1406,418.8438 L1141.1406,410.7656 L1138.6719,410.7656 Z "/><text fill="#000000" font-family="sans-serif" font-size="12" font-style="italic" lengthAdjust="spacingAndGlyphs" textLength="116" x="1163.25" y="419.1543">ModelInputMapper</text><line style="stroke: #A80036; stroke-width: 1.5;" x1="1071.5" x2="1338.5" y1="431" y2="431"/><line style="stroke: #A80036; stroke-width: 1.5;" x1="1071.5" x2="1338.5" y1="439" y2="439"/><ellipse cx="1081.5" cy="450" fill="#84BE84" rx="3" ry="3" style="stroke: #038048; stroke-width: 1.0;"/><text fill="#000000" font-family="sans-serif" font-size="11" lengthAdjust="spacingAndGlyphs" textLength="243" x="1090.5" y="453.2104">transform_observation(obs: Observations)</text><!--MD5=[6f2decf6b2d567154a4fbddfd1ad1a9d]
class ModelOutputMapper--><rect fill="#FEFECE" filter="url(#fw19xfgpmr3vb)" height="60.8047" id="ModelOutputMapper" style="stroke: #A80036; stroke-width: 1.5;" width="162" x="1375" y="399"/><ellipse cx="1391.35" cy="415" fill="#B4A7E5" rx="11" ry="11" style="stroke: #A80036; stroke-width: 1.0;"/><path d="M1387.2719,410.7656 L1387.2719,408.6094 L1394.6625,408.6094 L1394.6625,410.7656 L1392.1938,410.7656 L1392.1938,418.8438 L1394.6625,418.8438 L1394.6625,421 L1387.2719,421 L1387.2719,418.8438 L1389.7406,418.8438 L1389.7406,410.7656 L1387.2719,410.7656 Z "/><text fill="#000000" font-family="sans-serif" font-size="12" font-style="italic" lengthAdjust="spacingAndGlyphs" textLength="127" x="1405.65" y="419.1543">ModelOutputMapper</text><line style="stroke: #A80036; stroke-width: 1.5;" x1="1376" x2="1536" y1="431" y2="431"/><line style="stroke: #A80036; stroke-width: 1.5;" x1="1376" x2="1536" y1="439" y2="439"/><ellipse cx="1386" cy="450" fill="#84BE84" rx="3" ry="3" style="stroke: #038048; stroke-width: 1.0;"/><text fill="#000000" font-family="sans-serif" font-size="11" lengthAdjust="spacingAndGlyphs" textLength="136" x="1395" y="453.2104">to_action(model_output)</text><!--MD5=[f7b7c5b139eac946b6e6c4bc7d5ee5a3]
class ActionPort--><rect fill="#FEFECE" filter="url(#fw19xfgpmr3vb)" height="60.8047" id="ActionPort" style="stroke: #A80036; stroke-width: 1.5;" width="142" x="417" y="232"/><ellipse cx="452.25" cy="248" fill="#B4A7E5" rx="11" ry="11" style="stroke: #A80036; stroke-width: 1.0;"/><path d="M448.1719,243.7656 L448.1719,241.6094 L455.5625,241.6094 L455.5625,243.7656 L453.0938,243.7656 L453.0938,251.8438 L455.5625,251.8438 L455.5625,254 L448.1719,254 L448.1719,251.8438 L450.6406,251.8438 L450.6406,243.7656 L448.1719,243.7656 Z "/><text fill="#000000" font-family="sans-serif" font-size="12" font-style="italic" lengthAdjust="spacingAndGlyphs" textLength="65" x="470.75" y="252.1543">ActionPort</text><line style="stroke: #A80036; stroke-width: 1.5;" x1="418" x2="558" y1="264" y2="264"/><line style="stroke: #A80036; stroke-width: 1.5;" x1="418" x2="558" y1="272" y2="272"/><ellipse cx="428" cy="283" fill="#84BE84" rx="3" ry="3" style="stroke: #038048; stroke-width: 1.0;"/><text fill="#000000" font-family="sans-serif" font-size="11" lengthAdjust="spacingAndGlyphs" textLength="116" x="437" y="286.2104">move(node, actions)</text><!--MD5=[60fb4f72b7635aa97affd2efc062a79f]
class Robot--><rect fill="#FEFECE" filter="url(#fw19xfgpmr3vb)" height="99.2188" id="Robot" style="stroke: #A80036; stroke-width: 1.5;" width="220" x="339" y="380"/><ellipse cx="426.25" cy="396" fill="#ADD1B2" rx="11" ry="11" style="stroke: #A80036; stroke-width: 1.0;"/><path d="M429.2188,401.6406 Q428.6406,401.9375 428,402.0781 Q427.3594,402.2344 426.6563,402.2344 Q424.1563,402.2344 422.8281,400.5938 Q421.5156,398.9375 421.5156,395.8125 Q421.5156,392.6875 422.8281,391.0313 Q424.1563,389.375 426.6563,389.375 Q427.3594,389.375 428,389.5313 Q428.6563,389.6875 429.2188,389.9844 L429.2188,392.7031 Q428.5938,392.125 428,391.8594 Q427.4063,391.5781 426.7813,391.5781 Q425.4375,391.5781 424.75,392.6563 Q424.0625,393.7188 424.0625,395.8125 Q424.0625,397.9063 424.75,398.9844 Q425.4375,400.0469 426.7813,400.0469 Q427.4063,400.0469 428,399.7813 Q428.5938,399.5 429.2188,398.9219 L429.2188,401.6406 Z "/><text fill="#000000" font-family="sans-serif" font-size="12" lengthAdjust="spacingAndGlyphs" textLength="37" x="446.75" y="400.1543">Robot</text><line style="stroke: #A80036; stroke-width: 1.5;" x1="340" x2="558" y1="412" y2="412"/><text fill="#000000" font-family="sans-serif" font-size="11" lengthAdjust="spacingAndGlyphs" textLength="60" x="359" y="426.2104">prefix : str</text><rect fill="none" height="6" style="stroke: #C82930; stroke-width: 1.0;" width="6" x="347" y="432.8047"/><text fill="#000000" font-family="sans-serif" font-size="11" lengthAdjust="spacingAndGlyphs" textLength="172" x="359" y="439.0151">action_mapper : ActionMapper</text><rect fill="none" height="6" style="stroke: #C82930; stroke-width: 1.0;" width="6" x="347" y="445.6094"/><text fill="#000000" font-family="sans-serif" font-size="11" lengthAdjust="spacingAndGlyphs" textLength="176" x="359" y="451.8198">arm_executor : MotionExecutor</text><rect fill="none" height="6" style="stroke: #C82930; stroke-width: 1.0;" width="6" x="347" y="458.4141"/><text fill="#000000" font-family="sans-serif" font-size="11" lengthAdjust="spacingAndGlyphs" textLength="194" x="359" y="464.6245">gripper_executor : MotionExecutor</text><line style="stroke: #A80036; stroke-width: 1.5;" x1="340" x2="558" y1="471.2188" y2="471.2188"/><!--MD5=[42147f311b496e41c4cc66e85f3d3882]
class ActionMapper--><rect fill="#FEFECE" filter="url(#fw19xfgpmr3vb)" height="60.8047" id="ActionMapper" style="stroke: #A80036; stroke-width: 1.5;" width="276" x="38" y="540"/><ellipse cx="128.75" cy="556" fill="#B4A7E5" rx="11" ry="11" style="stroke: #A80036; stroke-width: 1.0;"/><path d="M124.6719,551.7656 L124.6719,549.6094 L132.0625,549.6094 L132.0625,551.7656 L129.5938,551.7656 L129.5938,559.8438 L132.0625,559.8438 L132.0625,562 L124.6719,562 L124.6719,559.8438 L127.1406,559.8438 L127.1406,551.7656 L124.6719,551.7656 Z "/><text fill="#000000" font-family="sans-serif" font-size="12" font-style="italic" lengthAdjust="spacingAndGlyphs" textLength="86" x="149.25" y="560.1543">ActionMapper</text><line style="stroke: #A80036; stroke-width: 1.5;" x1="39" x2="313" y1="572" y2="572"/><line style="stroke: #A80036; stroke-width: 1.5;" x1="39" x2="313" y1="580" y2="580"/><ellipse cx="49" cy="591" fill="#84BE84" rx="3" ry="3" style="stroke: #038048; stroke-width: 1.0;"/><text fill="#000000" font-family="sans-serif" font-size="11" lengthAdjust="spacingAndGlyphs" textLength="250" x="58" y="594.2104">map_action_to_executor_input(action, state)</text><!--MD5=[712973abc824f6581b9310ac97374d8e]
class MotionExecutor--><rect fill="#FEFECE" filter="url(#fw19xfgpmr3vb)" height="60.8047" id="MotionExecutor" style="stroke: #A80036; stroke-width: 1.5;" width="209" x="349.5" y="540"/><ellipse cx="401.25" cy="556" fill="#B4A7E5" rx="11" ry="11" style="stroke: #A80036; stroke-width: 1.0;"/><path d="M397.1719,551.7656 L397.1719,549.6094 L404.5625,549.6094 L404.5625,551.7656 L402.0938,551.7656 L402.0938,559.8438 L404.5625,559.8438 L404.5625,562 L397.1719,562 L397.1719,559.8438 L399.6406,559.8438 L399.6406,551.7656 L397.1719,551.7656 Z "/><text fill="#000000" font-family="sans-serif" font-size="12" font-style="italic" lengthAdjust="spacingAndGlyphs" textLength="97" x="421.75" y="560.1543">MotionExecutor</text><line style="stroke: #A80036; stroke-width: 1.5;" x1="350.5" x2="557.5" y1="572" y2="572"/><line style="stroke: #A80036; stroke-width: 1.5;" x1="350.5" x2="557.5" y1="580" y2="580"/><ellipse cx="360.5" cy="591" fill="#84BE84" rx="3" ry="3" style="stroke: #038048; stroke-width: 1.0;"/><text fill="#000000" font-family="sans-serif" font-size="11" lengthAdjust="spacingAndGlyphs" textLength="183" x="369.5" y="594.2104">execute_async(command, node)</text><!--MD5=[92a70762d0fa9cf637c5d3771e0ef9f5]
class ObservationHandler--><rect fill="#FEFECE" filter="url(#fw19xfgpmr3vb)" height="60.8047" id="ObservationHandler" style="stroke: #A80036; stroke-width: 1.5;" width="156" x="615" y="399"/><ellipse cx="630" cy="415" fill="#B4A7E5" rx="11" ry="11" style="stroke: #A80036; stroke-width: 1.0;"/><path d="M625.9219,410.7656 L625.9219,408.6094 L633.3125,408.6094 L633.3125,410.7656 L630.8438,410.7656 L630.8438,418.8438 L633.3125,418.8438 L633.3125,421 L625.9219,421 L625.9219,418.8438 L628.3906,418.8438 L628.3906,410.7656 L625.9219,410.7656 Z "/><text fill="#000000" font-family="sans-serif" font-size="12" font-style="italic" lengthAdjust="spacingAndGlyphs" textLength="124" x="644" y="419.1543">ObservationHandler</text><line style="stroke: #A80036; stroke-width: 1.5;" x1="616" x2="770" y1="431" y2="431"/><line style="stroke: #A80036; stroke-width: 1.5;" x1="616" x2="770" y1="439" y2="439"/><ellipse cx="626" cy="450" fill="#84BE84" rx="3" ry="3" style="stroke: #038048; stroke-width: 1.0;"/><text fill="#000000" font-family="sans-serif" font-size="11" lengthAdjust="spacingAndGlyphs" textLength="106" x="635" y="453.2104">get_observations()</text><!--MD5=[d15a31543c059517911017652059587f]
class RfmActionServer--><rect fill="#FEFECE" filter="url(#fw19xfgpmr3vb)" height="86.4141" id="RfmActionServer" style="stroke: #A80036; stroke-width: 1.5;" width="360" x="534" y="47"/><ellipse cx="658.75" cy="63" fill="#ADD1B2" rx="11" ry="11" style="stroke: #A80036; stroke-width: 1.0;"/><path d="M661.7188,68.6406 Q661.1406,68.9375 660.5,69.0781 Q659.8594,69.2344 659.1563,69.2344 Q656.6563,69.2344 655.3281,67.5938 Q654.0156,65.9375 654.0156,62.8125 Q654.0156,59.6875 655.3281,58.0313 Q656.6563,56.375 659.1563,56.375 Q659.8594,56.375 660.5,56.5313 Q661.1563,56.6875 661.7188,56.9844 L661.7188,59.7031 Q661.0938,59.125 660.5,58.8594 Q659.9063,58.5781 659.2813,58.5781 Q657.9375,58.5781 657.25,59.6563 Q656.5625,60.7188 656.5625,62.8125 Q656.5625,64.9063 657.25,65.9844 Q657.9375,67.0469 659.2813,67.0469 Q659.9063,67.0469 660.5,66.7813 Q661.0938,66.5 661.7188,65.9219 L661.7188,68.6406 Z "/><text fill="#000000" font-family="sans-serif" font-size="12" lengthAdjust="spacingAndGlyphs" textLength="102" x="679.25" y="67.1543">RfmActionServer</text><line style="stroke: #A80036; stroke-width: 1.5;" x1="535" x2="893" y1="79" y2="79"/><rect fill="none" height="6" style="stroke: #C82930; stroke-width: 1.0;" width="6" x="542" y="87"/><text fill="#000000" font-family="sans-serif" font-size="11" lengthAdjust="spacingAndGlyphs" textLength="132" x="554" y="93.2104">model_port : ModelPort</text><rect fill="none" height="6" style="stroke: #C82930; stroke-width: 1.0;" width="6" x="542" y="99.8047"/><text fill="#000000" font-family="sans-serif" font-size="11" lengthAdjust="spacingAndGlyphs" textLength="132" x="554" y="106.0151">action_port : ActionPort</text><line style="stroke: #A80036; stroke-width: 1.5;" x1="535" x2="893" y1="112.6094" y2="112.6094"/><ellipse cx="545" cy="123.6094" fill="#84BE84" rx="3" ry="3" style="stroke: #038048; stroke-width: 1.0;"/><text fill="#000000" font-family="sans-serif" font-size="11" lengthAdjust="spacingAndGlyphs" textLength="334" x="554" y="126.8198">move_from_prompt(prompt: str) -&gt; RfmControlStatusCode</text><!--MD5=[21487777843774bd9edf0d653cec4683]
link AdapterFactory to RfmConfigYaml--><path d="M1764,120.84 C1764,120.84 1764,204.93 1764,204.93 " fill="none" id="AdapterFactory-&gt;RfmConfigYaml" style="stroke: #A80036; stroke-width: 1.0; stroke-dasharray: 7.0,7.0;"/><polygon fill="#A80036" points="1764,209.93,1768,200.93,1764,204.93,1760,200.93,1764,209.93" style="stroke: #A80036; stroke-width: 1.0;"/><text fill="#000000" font-family="sans-serif" font-size="13" lengthAdjust="spacingAndGlyphs" textLength="34" x="1765" y="176.0669">loads</text><!--MD5=[ca548e8f746b8f7a73cceff68b5194f7]
link AdapterFactory to ModelPort--><path d="M1643.67,120.66 C1643.67,167.88 1643.67,253 1643.67,253 C1643.67,253 1163.67,253 1163.67,253 " fill="none" id="AdapterFactory-&gt;ModelPort" style="stroke: #A80036; stroke-width: 1.0; stroke-dasharray: 7.0,7.0;"/><polygon fill="#A80036" points="1158.67,253,1167.67,257,1163.67,253,1167.67,249,1158.67,253" style="stroke: #A80036; stroke-width: 1.0;"/><text fill="#000000" font-family="sans-serif" font-size="13" lengthAdjust="spacingAndGlyphs" textLength="48" x="1228" y="176.0669">creates</text><!--MD5=[122780a20570b6468eb1aa57cc14a109]
link AdapterFactory to ActionPort--><path d="M1618.33,120.53 C1618.33,143.85 1618.33,172 1618.33,172 C1618.33,172 550.67,172 550.67,172 C550.67,172 550.67,226.86 550.67,226.86 " fill="none" id="AdapterFactory-&gt;ActionPort" style="stroke: #A80036; stroke-width: 1.0; stroke-dasharray: 7.0,7.0;"/><polygon fill="#A80036" points="550.67,231.86,554.67,222.86,550.67,226.86,546.67,222.86,550.67,231.86" style="stroke: #A80036; stroke-width: 1.0;"/><text fill="#000000" font-family="sans-serif" font-size="13" lengthAdjust="spacingAndGlyphs" textLength="48" x="1089" y="176.0669">creates</text><!--MD5=[90df235c1928d4f5c4010f810c0a2615]
reverse link RfmActionServer to ModelPort--><path d="M860.5,146.17 C860.5,146.17 860.5,248 860.5,248 C860.5,248 938.39,248 1001.38,248 " fill="none" id="RfmActionServer&lt;-ModelPort" style="stroke: #A80036; stroke-width: 1.0;"/><polygon fill="#A80036" points="860.5,133.17,856.5,139.17,860.5,145.17,864.5,139.17,860.5,133.17" style="stroke: #A80036; stroke-width: 1.0;"/><!--MD5=[3c68c9e2078af3f72827c291d4c6a456]
reverse link RfmActionServer to ActionPort--><path d="M542.33,146.08 C542.33,146.08 542.33,231.87 542.33,231.87 " fill="none" id="RfmActionServer&lt;-ActionPort" style="stroke: #A80036; stroke-width: 1.0;"/><polygon fill="#A80036" points="542.33,133.08,538.33,139.08,542.33,145.08,546.33,139.08,542.33,133.08" style="stroke: #A80036; stroke-width: 1.0;"/><!--MD5=[ba736c91f75c27807c4b07faf0761963]
reverse link ModelPort to ModelClient--><path d="M1018.25,306.13 C1018.25,306.13 1018.25,398.78 1018.25,398.78 " fill="none" id="ModelPort&lt;-ModelClient" style="stroke: #A80036; stroke-width: 1.0;"/><polygon fill="#FFFFFF" points="1018.25,293.13,1014.25,299.13,1018.25,305.13,1022.25,299.13,1018.25,293.13" style="stroke: #A80036; stroke-width: 1.0;"/><!--MD5=[e8f98d822b54d66c5de7db971927e299]
reverse link ModelPort to ModelInputMapper--><path d="M1114.5,306.13 C1114.5,306.13 1114.5,398.78 1114.5,398.78 " fill="none" id="ModelPort&lt;-ModelInputMapper" style="stroke: #A80036; stroke-width: 1.0;"/><polygon fill="#FFFFFF" points="1114.5,293.13,1110.5,299.13,1114.5,305.13,1118.5,299.13,1114.5,293.13" style="stroke: #A80036; stroke-width: 1.0;"/><!--MD5=[cf27082b8421fc2d16c09d1dbe2d6c78]
reverse link ModelPort to ModelOutputMapper--><path d="M1171.82,273 C1171.82,273 1456,273 1456,273 C1456,273 1456,353.41 1456,398.95 " fill="none" id="ModelPort&lt;-ModelOutputMapper" style="stroke: #A80036; stroke-width: 1.0;"/><polygon fill="#FFFFFF" points="1158.82,273,1164.82,277,1170.82,273,1164.82,269,1158.82,273" style="stroke: #A80036; stroke-width: 1.0;"/><!--MD5=[e56aa714ee641a59c940e666640d1902]
reverse link ModelPort to ObservationHandler--><path d="M988.22,263 C988.22,263 719,263 719,263 C719,263 719,350.89 719,398.96 " fill="none" id="ModelPort&lt;-ObservationHandler" style="stroke: #A80036; stroke-width: 1.0;"/><polygon fill="#FFFFFF" points="1001.22,263,995.22,259,989.22,263,995.22,267,1001.22,263" style="stroke: #A80036; stroke-width: 1.0;"/><!--MD5=[e360f553f202f8c7134bc18184729cb3]
reverse link ActionPort to Robot--><path d="M488,306.13 C488,306.13 488,379.72 488,379.72 " fill="none" id="ActionPort&lt;-Robot" style="stroke: #A80036; stroke-width: 1.0;"/><polygon fill="#FFFFFF" points="488,293.13,484,299.13,488,305.13,492,299.13,488,293.13" style="stroke: #A80036; stroke-width: 1.0;"/><!--MD5=[3a6b4c72852db3897245fd40a8feb20e]
reverse link ActionPort to ObservationHandler--><path d="M572,278 C572,278 667,278 667,278 C667,278 667,354.57 667,398.84 " fill="none" id="ActionPort&lt;-ObservationHandler" style="stroke: #A80036; stroke-width: 1.0;"/><polygon fill="#FFFFFF" points="559,278,565,282,571,278,565,274,559,278" style="stroke: #A80036; stroke-width: 1.0;"/><!--MD5=[a7604711b99421239907e896ae42bd83]
reverse link Robot to ActionMapper--><path d="M344.25,492.39 C344.25,492.39 344.25,571 344.25,571 C344.25,571 332.03,571 314.17,571 " fill="none" id="Robot&lt;-ActionMapper" style="stroke: #A80036; stroke-width: 1.0;"/><polygon fill="#FFFFFF" points="344.25,479.39,340.25,485.39,344.25,491.39,348.25,485.39,344.25,479.39" style="stroke: #A80036; stroke-width: 1.0;"/><!--MD5=[47f40927a6606574a46852051df7945a]
reverse link Robot to MotionExecutor--><path d="M454,492.21 C454,492.21 454,539.66 454,539.66 " fill="none" id="Robot&lt;-MotionExecutor" style="stroke: #A80036; stroke-width: 1.0;"/><polygon fill="#FFFFFF" points="454,479.21,450,485.21,454,491.21,458,485.21,454,479.21" style="stroke: #A80036; stroke-width: 1.0;"/><!--MD5=[e9a999b4ed2edc4b837cca747835c8a3]
@startuml architecture_overview

skinparam linetype ortho
skinparam packageStyle rectangle


package "Configuration" {
  class RfmConfigYaml <<schema>> {
    model : ModelConfigYaml
    action : ActionConfigYaml
    robots : list[RobotConfigYaml]
    images : list[ImageConfigYaml]
  }
  
  class AdapterFactory {
    + create_adapters(config_path) -> (ModelPort, ActionPort)
  }
}


class RfmActionServer {
  - model_port : ModelPort
  - action_port : ActionPort
  + move_from_prompt(prompt: str) -> RfmControlStatusCode
}


package "Model Adapter" {
  
  interface ModelPort {
    + get_action(prompt: str)
  }
  
  interface ModelClient {
    + get_action(observation, prompt)
  }
  
  interface ModelInputMapper {
    + transform_observation(obs: Observations)
  }
  
  interface ModelOutputMapper {
    + to_action(model_output)
  }
}


package "Action Adapter" {
  
  interface ActionPort {
    + move(node, actions)
  }
  
  class Robot {
    prefix : str
    - action_mapper : ActionMapper
    - arm_executor : MotionExecutor
    - gripper_executor : MotionExecutor
  }
  
  interface ActionMapper {
    + map_action_to_executor_input(action, state)
  }
  
  interface MotionExecutor {
    + execute_async(command, node)
  }
}


package "Observation Handler" {
  interface ObservationHandler {
    + get_observations()
  }
}


AdapterFactory ..> RfmConfigYaml : loads
AdapterFactory ..> ModelPort : creates
AdapterFactory ..> ActionPort : creates

RfmActionServer *- - ModelPort
RfmActionServer *- - ActionPort

ModelPort o- - ModelClient
ModelPort o- - ModelInputMapper
ModelPort o- - ModelOutputMapper
ModelPort o- - ObservationHandler

ActionPort o- - Robot
ActionPort o- - ObservationHandler

Robot o- - ActionMapper
Robot o- - MotionExecutor

@enduml

PlantUML version 1.2020.02(Sun Mar 01 10:22:07 UTC 2020)
(GPL source distribution)
Java Runtime: OpenJDK Runtime Environment
JVM: OpenJDK 64-Bit Server VM
Java Version: 11.0.28+6-post-Ubuntu-1ubuntu122.04.1
Operating System: Linux
Default Encoding: UTF-8
Language: en
Country: null
--></g></svg>